<svg width="64" height="23" viewBox="0 0 64 23" fill="none" xmlns="http://www.w3.org/2000/svg">
<path d="M16.8818 0.671875V22H14.04L3.30273 5.5498V22H0.475586V0.671875H3.30273L14.084 17.166V0.671875H16.8818ZM29.5586 22.293C28.4551 22.293 27.4541 22.1074 26.5557 21.7363C25.667 21.3555 24.9004 20.8232 24.2559 20.1396C23.6211 19.4561 23.1328 18.6455 22.791 17.708C22.4492 16.7705 22.2783 15.7451 22.2783 14.6318V14.0166C22.2783 12.7275 22.4688 11.5801 22.8496 10.5742C23.2305 9.55859 23.748 8.69922 24.4023 7.99609C25.0566 7.29297 25.7988 6.76074 26.6289 6.39941C27.459 6.03809 28.3184 5.85742 29.207 5.85742C30.3398 5.85742 31.3164 6.05273 32.1367 6.44336C32.9668 6.83398 33.6455 7.38086 34.1729 8.08398C34.7002 8.77734 35.0908 9.59766 35.3447 10.5449C35.5986 11.4824 35.7256 12.5078 35.7256 13.6211V14.8369H23.8896V12.625H33.0156V12.4199C32.9766 11.7168 32.8301 11.0332 32.5762 10.3691C32.332 9.70508 31.9414 9.1582 31.4043 8.72852C30.8672 8.29883 30.1348 8.08398 29.207 8.08398C28.5918 8.08398 28.0254 8.21582 27.5078 8.47949C26.9902 8.7334 26.5459 9.11426 26.1748 9.62207C25.8037 10.1299 25.5156 10.75 25.3105 11.4824C25.1055 12.2148 25.0029 13.0596 25.0029 14.0166V14.6318C25.0029 15.3838 25.1055 16.0918 25.3105 16.7559C25.5254 17.4102 25.833 17.9863 26.2334 18.4844C26.6436 18.9824 27.1367 19.373 27.7129 19.6562C28.2988 19.9395 28.9629 20.0811 29.7051 20.0811C30.6621 20.0811 31.4727 19.8857 32.1367 19.4951C32.8008 19.1045 33.3818 18.582 33.8799 17.9277L35.5205 19.2314C35.1787 19.749 34.7441 20.2422 34.2168 20.7109C33.6895 21.1797 33.04 21.5605 32.2686 21.8535C31.5068 22.1465 30.6035 22.293 29.5586 22.293ZM42.2207 6.15039L45.6924 11.9219L49.208 6.15039H52.3867L47.2012 13.9727L52.5479 22H49.4131L45.751 16.0527L42.0889 22H38.9395L44.2715 13.9727L39.1006 6.15039H42.2207ZM63.4082 6.15039V8.23047H54.8389V6.15039H63.4082ZM57.7393 2.29785H60.4492V18.0742C60.4492 18.6113 60.5322 19.0166 60.6982 19.29C60.8643 19.5635 61.0791 19.7441 61.3428 19.832C61.6064 19.9199 61.8896 19.9639 62.1924 19.9639C62.417 19.9639 62.6514 19.9443 62.8955 19.9053C63.1494 19.8564 63.3398 19.8174 63.4668 19.7881L63.4814 22C63.2666 22.0684 62.9834 22.1318 62.6318 22.1904C62.29 22.2588 61.875 22.293 61.3867 22.293C60.7227 22.293 60.1123 22.1611 59.5557 21.8975C58.999 21.6338 58.5547 21.1943 58.2227 20.5791C57.9004 19.9541 57.7393 19.1143 57.7393 18.0596V2.29785Z" fill="white"/>
</svg>
